<?xml version="1.0" standalone="no"?>
<!DOCTYPE svg PUBLIC "-//W3C//DTD SVG 20010904//EN"
 "http://www.w3.org/TR/2001/REC-SVG-20010904/DTD/svg10.dtd">
<svg version="1.0" xmlns="http://www.w3.org/2000/svg"
 width="512.000000pt" height="512.000000pt" viewBox="0 0 512.000000 512.000000"
 preserveAspectRatio="xMidYMid meet">
<metadata>
Created by potrace 1.14, written by Peter Selinger 2001-2017
</metadata>
<g transform="translate(0.000000,512.000000) scale(0.100000,-0.100000)"
fill="#000000" stroke="none">
<path d="M4233 4885 c0 -8 4 -15 9 -15 4 0 8 4 8 9 0 6 -4 12 -8 15 -5 3 -9
-1 -9 -9z"/>
<path d="M4350 4890 c0 -5 -6 -7 -14 -4 -8 3 -17 1 -20 -5 -5 -7 -13 -7 -26 1
-16 10 -22 9 -33 -5 -14 -20 -51 -14 -42 7 3 6 0 3 -7 -6 -11 -15 -13 -15 -25
0 -12 16 -12 15 -7 -2 6 -16 5 -17 -16 -6 -12 7 -20 8 -16 2 3 -5 -2 -13 -11
-16 -9 -4 -20 -1 -24 6 -6 9 -15 6 -34 -12 -15 -14 -26 -20 -25 -15 5 24 -1
27 -16 9 -15 -19 -16 -19 -9 0 6 19 5 19 -14 2 -13 -12 -21 -14 -26 -6 -5 8
-10 8 -20 0 -8 -7 -20 -8 -26 -4 -8 5 -11 1 -7 -13 3 -12 0 -20 -7 -20 -7 0
-11 6 -9 12 3 6 -2 12 -10 12 -8 0 -13 -3 -11 -7 2 -3 -5 -12 -17 -19 -11 -7
-17 -8 -13 -2 9 15 -8 14 -24 -1 -9 -8 -12 -9 -7 -1 7 13 -22 11 -32 -3 -8
-11 -28 -17 -58 -17 -14 -1 -20 -6 -17 -15 5 -11 7 -11 14 0 5 7 9 8 9 2 0
-18 -13 -24 -27 -13 -9 8 -13 8 -13 0 0 -6 -11 -8 -30 -4 -21 4 -30 2 -30 -7
0 -10 -3 -10 -15 0 -9 7 -18 10 -22 6 -3 -3 -1 -6 5 -6 7 0 12 -8 12 -17 0
-15 -2 -16 -10 -3 -9 14 -15 6 -10 -15 1 -5 -2 -7 -6 -3 -4 4 -13 3 -20 -2 -6
-6 -16 -10 -20 -9 -19 3 -35 -1 -30 -9 2 -4 -4 -14 -16 -21 -11 -7 -17 -8 -13
-2 11 20 -6 12 -27 -11 -11 -13 -17 -17 -13 -10 9 18 -6 15 -22 -5 -8 -10 -11
-12 -8 -5 6 11 3 11 -14 0 -12 -7 -21 -16 -21 -20 0 -4 -7 -4 -17 -1 -11 4
-14 3 -9 -5 4 -7 2 -12 -4 -12 -6 0 -9 -4 -6 -8 3 -5 -1 -9 -9 -9 -8 0 -12 4
-9 8 2 4 -1 11 -7 15 -8 4 -9 3 -5 -4 4 -7 2 -12 -4 -12 -6 0 -8 -4 -5 -10 3
-5 1 -10 -5 -10 -6 0 -9 -4 -6 -8 2 -4 -11 -7 -29 -7 -19 1 -32 -2 -29 -7 3
-4 0 -8 -6 -8 -6 0 -8 -4 -5 -10 3 -5 2 -10 -4 -10 -5 0 -12 6 -14 13 -3 7 -6
6 -6 -5 -1 -9 -6 -20 -13 -24 -8 -5 -9 -2 -5 10 4 10 3 15 -3 11 -6 -3 -10
-13 -10 -22 0 -9 -6 -13 -15 -10 -8 4 -17 2 -20 -4 -4 -5 -11 -6 -17 -3 -7 4
-8 2 -4 -5 6 -9 12 -9 24 1 15 12 16 11 3 -5 -8 -9 -16 -15 -19 -12 -3 2 -11
-3 -19 -13 -9 -10 -11 -11 -7 -2 7 13 5 13 -9 1 -9 -7 -17 -10 -17 -6 0 5 -8
1 -18 -8 -10 -10 -22 -14 -27 -10 -4 5 -5 2 0 -5 5 -10 10 -11 18 -3 6 6 15
11 21 11 5 0 1 -6 -9 -14 -11 -8 -26 -11 -34 -8 -10 4 -12 1 -6 -8 6 -10 3
-12 -13 -8 -12 4 -25 1 -29 -4 -4 -7 -1 -8 8 -4 8 4 6 1 -3 -7 -10 -8 -14 -18
-10 -23 4 -4 -2 -2 -12 6 -13 10 -17 10 -12 3 4 -8 2 -13 -4 -13 -6 0 -8 -5
-4 -12 4 -7 3 -8 -5 -4 -6 4 -18 2 -26 -4 -8 -6 -18 -9 -24 -6 -5 3 -7 -3 -4
-14 4 -16 2 -19 -11 -14 -10 4 -16 1 -16 -9 0 -9 -5 -19 -12 -23 -8 -5 -9 -2
-4 11 5 15 4 16 -8 6 -8 -7 -13 -21 -11 -32 3 -16 1 -17 -15 -9 -21 11 -36 -2
-24 -22 5 -8 2 -9 -9 -5 -11 4 -17 1 -17 -8 0 -8 -9 -15 -21 -15 -11 0 -18 -4
-15 -9 3 -5 -2 -15 -11 -22 -11 -10 -14 -10 -9 -2 5 9 2 11 -9 7 -9 -4 -14
-13 -10 -21 3 -11 1 -13 -10 -9 -10 3 -15 -1 -15 -14 0 -10 -4 -22 -10 -25 -6
-4 -7 1 -4 12 4 10 -11 0 -34 -22 -22 -22 -39 -42 -38 -45 0 -3 -1 -5 -4 -6
-19 -3 -50 -27 -45 -35 4 -5 1 -9 -4 -9 -6 0 -11 -8 -12 -17 0 -11 -3 -13 -6
-5 -2 6 -9 12 -15 12 -6 0 -7 -7 -4 -16 4 -10 -3 -18 -24 -25 -29 -11 -35 -26
-15 -42 6 -5 0 -5 -13 -2 -16 5 -22 3 -20 -7 2 -7 -3 -12 -10 -10 -6 1 -11 -1
-10 -5 2 -5 -1 -10 -7 -13 -26 -12 -65 -63 -65 -85 0 -14 -5 -25 -11 -25 -5 0
-7 -5 -3 -11 4 -8 0 -8 -15 0 -18 10 -20 9 -14 -6 5 -12 2 -15 -9 -10 -12 4
-14 1 -10 -15 3 -14 1 -19 -6 -14 -13 8 -35 -27 -24 -40 4 -5 0 -3 -9 4 -14
11 -17 10 -15 -5 1 -14 -5 -17 -23 -15 -18 3 -22 0 -18 -12 4 -11 1 -13 -10
-9 -12 5 -14 3 -8 -8 7 -11 5 -11 -10 1 -15 12 -17 12 -10 1 6 -11 4 -13 -10
-7 -15 5 -16 4 -5 -9 11 -13 8 -15 -21 -15 -27 0 -30 -2 -18 -12 8 -7 13 -12
10 -11 -7 4 -31 -26 -32 -39 0 -7 -4 -4 -9 7 -5 11 -9 14 -9 7 -1 -7 -6 -10
-11 -7 -6 4 -10 3 -9 -2 4 -23 -3 -31 -22 -28 -17 3 -19 2 -9 -10 10 -12 8
-13 -10 -10 -13 2 -20 2 -16 -2 8 -9 -14 -34 -25 -27 -5 3 -9 0 -9 -5 0 -6 -6
-10 -12 -9 -7 2 -12 -2 -11 -8 1 -7 -6 -10 -20 -7 -18 4 -19 3 -7 -6 13 -9 12
-11 -4 -11 -13 0 -16 -5 -12 -17 5 -17 5 -17 -6 -1 -11 15 -14 14 -34 -9 -16
-18 -24 -22 -29 -13 -5 9 -4 11 3 6 7 -4 12 -2 12 4 0 7 -6 10 -12 7 -7 -2
-13 -11 -12 -19 1 -8 -9 -15 -23 -16 -16 -1 -22 2 -18 11 4 6 -2 3 -12 -9 -11
-13 -28 -20 -45 -19 -20 1 -25 -1 -18 -10 7 -8 4 -11 -10 -10 -11 1 -23 5 -27
10 -5 4 -2 5 6 0 10 -6 12 -4 6 4 -5 9 -11 9 -17 3 -6 -6 -18 -8 -27 -5 -13 4
-14 3 -1 -5 8 -6 18 -8 24 -5 5 3 6 1 3 -4 -4 -6 -20 -9 -37 -8 -17 1 -30 -2
-30 -9 0 -7 -3 -7 -8 -1 -4 6 -16 17 -27 25 -18 14 -19 14 -7 -1 10 -14 9 -17
-9 -22 -16 -4 -19 -2 -14 11 5 14 4 14 -12 1 -20 -17 -53 -14 -54 4 0 7 -4 3
-9 -8 -5 -11 -9 -14 -9 -6 -1 11 -4 11 -18 0 -12 -10 -15 -11 -9 -1 6 9 1 11
-18 8 -14 -3 -31 -8 -38 -12 -10 -6 -10 -5 -1 7 10 12 8 15 -7 15 -10 0 -17
-3 -14 -7 2 -4 -14 -5 -36 -2 -26 4 -46 1 -57 -8 -15 -12 -16 -12 -8 1 16 26
14 38 -6 33 -10 -3 -16 -9 -13 -14 3 -5 0 -9 -5 -9 -6 0 -11 8 -12 18 0 11 -2
12 -6 4 -4 -10 -8 -9 -17 4 -10 13 -15 14 -21 4 -6 -9 -4 -11 5 -5 9 5 11 4 6
-4 -4 -6 -13 -8 -19 -4 -27 17 -37 12 -25 -10 11 -21 10 -21 -8 -7 -10 8 -16
11 -12 6 9 -10 -9 -46 -22 -46 -5 0 -7 8 -4 18 5 14 4 14 -4 2 -8 -10 -8 -18
0 -27 8 -10 7 -12 -4 -8 -12 5 -15 0 -13 -20 3 -20 0 -24 -9 -16 -10 8 -18 5
-32 -10 -10 -12 -18 -23 -16 -25 7 -11 0 -24 -13 -24 -8 0 -14 -3 -14 -7 3
-20 -2 -26 -11 -13 -8 13 -10 12 -10 -2 0 -10 -4 -18 -10 -18 -5 0 -7 -7 -4
-15 4 -10 0 -15 -11 -15 -9 0 -13 4 -10 10 3 6 -1 7 -10 3 -14 -5 -14 -8 -3
-15 10 -7 10 -11 1 -15 -7 -2 -13 -11 -13 -18 0 -8 -5 -17 -12 -21 -7 -4 -8
-3 -4 4 4 7 2 12 -3 12 -6 0 -11 -9 -11 -20 0 -14 -6 -20 -17 -18 -10 2 -18
-3 -18 -10 0 -7 -7 -17 -15 -23 -13 -10 -13 -10 1 -6 9 3 16 -1 16 -8 0 -7 -8
-10 -19 -7 -14 3 -17 0 -12 -12 5 -12 2 -15 -10 -10 -12 5 -15 2 -9 -12 5 -13
3 -15 -7 -9 -10 6 -12 4 -7 -8 4 -11 2 -14 -7 -11 -7 3 -19 -3 -27 -13 -13
-17 -13 -17 6 -3 19 14 19 14 6 -3 -8 -10 -21 -15 -29 -12 -12 4 -13 3 -2 -10
11 -13 7 -19 -12 -17 -3 1 -9 -5 -12 -14 -4 -10 -2 -13 7 -8 6 4 2 -3 -10 -15
-25 -23 -38 -28 -27 -8 6 9 4 9 -6 0 -12 -11 -11 -16 6 -29 10 -8 14 -13 8
-10 -7 3 -15 -1 -18 -10 -4 -9 -13 -14 -22 -10 -8 3 -13 2 -10 -3 3 -5 -1 -14
-9 -21 -7 -6 -11 -19 -8 -27 5 -12 2 -15 -10 -10 -12 4 -14 2 -10 -10 5 -12 3
-14 -8 -8 -11 7 -11 5 1 -10 8 -10 11 -16 5 -13 -5 3 -16 0 -23 -8 -10 -11
-10 -14 0 -14 7 -1 1 -8 -14 -16 -16 -8 -28 -17 -28 -20 0 -3 4 -3 9 1 5 3 13
1 16 -5 4 -6 3 -10 -2 -9 -4 1 -15 1 -23 0 -13 -1 -13 -2 0 -11 13 -8 13 -10
-2 -10 -9 0 -20 -5 -24 -12 -5 -8 -1 -9 12 -5 17 6 17 5 3 -5 -8 -7 -18 -21
-22 -31 -4 -11 -12 -15 -19 -11 -8 5 -7 0 2 -11 8 -10 11 -16 5 -13 -5 3 -16
0 -23 -8 -10 -11 -10 -14 0 -14 10 0 10 -2 -1 -9 -7 -5 -10 -14 -7 -20 4 -6 0
-11 -9 -11 -10 0 -13 5 -9 12 4 7 3 8 -5 4 -6 -4 -9 -11 -6 -16 3 -4 2 -10 -2
-13 -5 -2 -3 -2 4 -1 7 2 10 -3 6 -11 -3 -8 -9 -12 -14 -9 -5 3 -9 0 -9 -7 0
-6 -8 -18 -17 -26 -10 -8 -13 -12 -6 -9 6 4 15 1 19 -5 4 -8 3 -9 -4 -5 -11 7
-17 -6 -13 -27 1 -5 -3 -6 -9 -2 -6 3 -7 11 -4 17 4 7 2 8 -5 4 -6 -4 -11 -13
-10 -19 3 -25 -1 -38 -11 -32 -5 3 -10 1 -10 -4 0 -6 5 -11 11 -11 5 0 7 -5 4
-10 -4 -6 -9 -8 -13 -6 -4 2 -7 -7 -7 -20 0 -24 14 -35 16 -11 0 6 4 3 8 -7 4
-11 19 -20 35 -22 26 -3 27 -2 10 11 -18 14 -18 14 4 10 12 -2 26 -6 31 -10 5
-3 12 -1 16 4 3 6 12 8 20 4 9 -3 23 1 32 8 14 12 16 12 9 -1 -4 -8 0 -6 8 4
14 18 16 18 16 3 0 -16 2 -16 29 -3 16 9 31 13 33 10 10 -10 48 -13 43 -3 -4
5 -12 6 -18 3 -7 -4 -8 -3 -4 1 11 12 37 15 37 4 0 -5 5 -9 11 -9 5 0 8 3 6 8
-3 4 6 8 19 8 15 1 21 -2 17 -10 -4 -6 1 -5 10 3 10 8 20 11 24 8 3 -4 12 -2
19 4 10 8 12 5 8 -18 -3 -19 -2 -24 5 -14 5 8 14 10 21 6 9 -5 11 -4 6 3 -10
17 4 15 24 -3 18 -17 50 -11 46 8 -1 7 -1 9 1 4 3 -4 10 -4 16 0 6 4 8 0 4
-10 -4 -11 -2 -14 8 -10 8 3 12 9 9 14 -3 5 6 5 20 -1 17 -6 26 -6 26 0 0 6 4
10 10 10 5 0 9 -3 9 -7 -3 -20 2 -27 10 -14 8 13 12 13 27 0 14 -11 16 -11 10
0 -6 9 -5 12 5 9 8 -3 23 2 34 11 12 9 15 10 8 1 -19 -20 -16 -32 5 -21 26 14
34 14 43 -1 7 -10 9 -10 9 2 0 13 1 13 10 0 5 -8 10 -10 10 -3 0 6 9 9 22 5
16 -4 19 -2 13 8 -6 10 -4 11 6 4 21 -13 36 -13 36 0 -1 34 4 45 18 40 8 -4
15 -2 15 4 0 6 -6 13 -12 15 -8 3 -6 6 4 6 12 1 15 6 11 18 -4 11 -3 14 5 9 8
-5 12 0 12 13 0 12 6 21 14 21 8 0 18 5 22 12 5 7 3 8 -5 3 -10 -6 -11 -3 -2
14 7 11 17 21 24 21 8 0 7 4 -3 11 -12 9 -11 10 6 6 17 -4 20 -1 17 14 -3 11
0 19 6 19 7 0 10 4 6 9 -3 6 3 14 12 20 10 5 17 13 16 18 -2 4 2 9 7 9 6 1 15
2 20 3 6 0 10 6 10 12 0 5 -5 7 -12 3 -7 -4 -8 -3 -4 5 6 9 11 9 24 -1 14 -11
15 -10 8 6 -6 19 -6 19 11 4 15 -14 21 -14 35 -4 10 7 17 15 15 17 -1 3 6 -4
16 -14 14 -16 17 -17 17 -3 0 9 5 16 11 16 5 0 8 -4 5 -9 -3 -5 1 -14 8 -20
10 -8 16 -9 21 -1 3 6 11 7 17 4 8 -5 9 -1 5 12 -7 18 -6 18 7 1 12 -15 18
-16 35 -8 14 8 22 8 27 -1 5 -7 3 -8 -6 -3 -9 5 -11 4 -6 -4 4 -6 13 -8 19 -4
16 10 47 11 47 2 0 -4 3 -16 6 -26 6 -16 5 -16 -9 2 -16 20 -16 19 -10 -5 3
-14 11 -31 17 -39 8 -11 8 -13 -1 -8 -17 10 -28 -13 -12 -25 10 -6 6 -7 -11
-2 -14 4 -29 13 -35 20 -18 23 -95 18 -95 -7 0 -5 11 -2 25 7 14 9 25 14 25
11 0 -3 -16 -15 -36 -27 -20 -13 -33 -28 -30 -36 3 -8 0 -11 -9 -8 -14 6 -55
-28 -55 -45 0 -6 -4 -13 -10 -16 -6 -4 -7 1 -3 11 4 12 3 15 -6 10 -7 -5 -11
-17 -8 -27 4 -16 2 -17 -14 -9 -15 9 -17 8 -12 -6 5 -13 3 -15 -8 -9 -8 4 -11
5 -7 1 3 -4 3 -20 -2 -35 -6 -20 -4 -28 6 -28 7 0 10 5 7 11 -4 7 -2 8 5 1 10
-9 16 -43 13 -73 -1 -8 -8 -11 -20 -7 -12 3 -21 0 -25 -10 -4 -11 -2 -14 6 -9
7 4 8 3 4 -4 -4 -7 -14 -12 -22 -12 -10 0 -12 -5 -8 -12 6 -10 5 -10 -8 -1
-16 14 -29 8 -22 -11 3 -7 -5 -12 -17 -13 -12 -1 -26 -7 -30 -14 -4 -6 -16 -9
-28 -6 -14 3 -22 -1 -26 -14 -4 -10 -10 -19 -15 -19 -5 0 -6 8 -3 17 6 15 5
16 -9 3 -11 -11 -13 -19 -6 -28 8 -9 7 -11 -7 -6 -13 5 -16 4 -11 -4 4 -7 1
-12 -9 -12 -8 0 -18 -6 -21 -14 -3 -9 -12 -12 -21 -9 -10 4 -14 2 -10 -4 3 -5
0 -10 -8 -10 -8 0 -12 4 -9 9 3 4 1 8 -4 8 -10 0 -25 -37 -23 -53 1 -5 -3 -6
-9 -2 -8 5 -7 12 2 23 12 15 11 16 -4 4 -9 -8 -14 -20 -11 -28 4 -10 0 -12
-11 -8 -9 3 -16 1 -16 -5 0 -6 -7 -11 -15 -11 -16 0 -30 -41 -22 -69 5 -21
-12 -55 -30 -58 -7 -2 -13 2 -13 9 0 6 -3 8 -6 5 -4 -4 -1 -14 7 -23 13 -16
12 -16 -10 -5 -13 7 -21 9 -17 3 3 -5 -4 -18 -17 -28 -12 -10 -16 -12 -10 -4
7 8 13 19 13 24 0 6 -7 0 -16 -12 -8 -12 -12 -27 -9 -32 3 -6 -4 -14 -17 -19
-13 -6 -17 -10 -10 -10 10 -1 10 -5 -2 -17 -9 -8 -14 -19 -11 -24 3 -5 1 -11
-5 -15 -5 -3 -10 -12 -10 -18 0 -7 4 -6 10 3 6 9 10 10 10 3 0 -13 -39 -39
-53 -35 -5 1 -6 -2 -3 -7 4 -5 2 -12 -4 -16 -6 -4 -8 -11 -4 -16 3 -5 0 -8 -7
-7 -7 2 -13 -2 -14 -9 0 -16 -15 -29 -15 -14 0 7 -4 10 -9 6 -6 -3 -8 -15 -6
-28 4 -22 4 -22 -11 -2 -16 19 -16 19 -9 -4 6 -19 4 -23 -8 -18 -11 4 -14 2
-10 -8 3 -8 10 -12 16 -8 6 4 7 1 3 -6 -5 -7 -15 -10 -25 -7 -12 5 -11 2 3 -9
18 -14 18 -15 2 -15 -16 0 -16 -1 -2 -16 20 -20 22 -41 2 -25 -12 10 -13 8 -9
-8 3 -12 10 -21 17 -22 6 0 2 -4 -9 -9 -15 -6 -16 -9 -4 -9 9 -1 16 -8 16 -16
0 -12 -3 -12 -15 -2 -13 10 -14 9 -2 -13 7 -14 9 -22 5 -18 -4 4 -14 0 -22 -8
-11 -11 -19 -12 -28 -4 -10 8 -15 8 -21 -1 -5 -8 -3 -9 6 -4 9 6 11 4 6 -4 -5
-7 -14 -10 -22 -7 -8 3 -14 1 -14 -5 0 -6 -6 -7 -12 -3 -10 6 -10 4 0 -8 10
-13 10 -18 1 -24 -7 -4 -9 -3 -6 3 3 5 0 10 -8 10 -11 0 -12 -5 -3 -20 9 -17
8 -19 -6 -14 -12 5 -15 3 -9 -6 4 -6 9 -23 9 -37 3 -38 3 -40 15 -40 8 0 7 6
-2 18 -11 14 -11 15 0 5 14 -12 23 -95 10 -87 -4 2 -10 0 -14 -6 -3 -5 -2 -10
3 -10 5 0 9 -14 8 -30 -1 -32 -22 -53 -41 -43 -5 4 -7 3 -3 -2 4 -4 3 -14 -3
-22 -9 -10 -8 -13 2 -13 9 -1 8 -4 -4 -11 -9 -6 -15 -15 -11 -20 20 -33 9 -65
-19 -60 -5 1 -6 -3 -2 -9 3 -6 10 -8 15 -5 5 3 11 1 15 -5 3 -5 0 -10 -7 -10
-9 0 -9 -3 2 -10 8 -5 10 -10 3 -10 -6 0 -9 -9 -5 -22 3 -14 1 -19 -6 -14 -6
3 -13 2 -16 -3 -4 -5 -1 -13 5 -17 8 -5 9 -3 4 6 -6 9 -4 11 4 5 9 -5 7 -12
-8 -26 -25 -24 -28 -37 -3 -18 15 13 16 12 4 -3 -8 -9 -10 -23 -6 -30 4 -7 -1
-5 -12 4 -19 16 -20 16 -20 -2 0 -10 4 -16 8 -14 4 3 7 -5 5 -17 -1 -12 4 -24
13 -26 13 -4 13 -3 0 6 -11 8 -12 11 -2 11 8 0 10 5 6 13 -5 7 0 6 11 -3 10
-8 16 -10 12 -3 -4 6 0 19 9 28 12 12 19 13 24 5 5 -8 9 -4 13 10 4 17 11 21
26 17 12 -3 19 -1 15 5 -3 5 0 9 7 8 21 -3 59 11 54 20 -3 4 12 7 33 5 20 -1
42 2 49 7 9 7 11 2 7 -19 -5 -28 -5 -28 11 -6 8 12 24 21 34 20 11 -1 18 -4
16 -7 -2 -3 5 -11 15 -18 13 -8 21 -8 26 -1 3 6 13 8 21 5 8 -3 12 -2 9 3 -3
5 1 12 10 15 10 4 13 2 9 -7 -4 -6 1 -3 9 7 9 11 16 16 16 11 0 -5 7 0 15 11
15 19 15 19 9 -1 l-7 -20 16 20 c19 23 22 39 5 29 -7 -4 -8 -3 -4 5 6 9 11 9
22 0 12 -9 13 -9 9 3 -3 8 2 21 12 29 16 13 17 12 5 -3 -10 -12 -10 -18 -1
-24 7 -4 9 -3 5 4 -3 6 -1 14 5 17 5 4 8 14 4 23 -3 9 -3 13 0 10 4 -4 18 -3
32 3 17 6 22 6 17 -2 -3 -6 6 -3 22 7 28 18 29 18 14 -1 -13 -17 -13 -18 0
-10 8 5 20 16 27 26 7 9 23 15 37 14 19 -2 23 1 19 13 -5 11 -3 13 7 7 10 -6
12 -4 7 11 -7 18 -7 18 8 0 14 -18 20 -15 15 9 -1 5 2 7 6 3 4 -4 14 -2 23 5
14 11 15 10 1 -7 -14 -18 -13 -18 9 -11 16 5 21 4 17 -4 -4 -6 -2 -11 3 -11 6
0 11 5 11 10 0 6 6 10 13 9 25 -3 38 1 32 11 -3 5 0 7 9 4 8 -3 23 0 33 6 17
11 17 11 -2 5 -13 -4 -17 -3 -10 4 6 5 21 12 35 15 54 10 116 47 102 60 -3 4
1 4 10 1 9 -4 19 -1 24 6 5 8 3 10 -7 5 -8 -4 -5 0 5 8 15 12 16 16 5 16 -11
1 -10 4 4 14 19 15 23 31 5 20 -10 -6 -10 -5 -1 8 7 8 12 17 10 19 -1 2 4 -3
12 -11 12 -13 13 -13 9 0 -5 15 17 70 28 70 3 0 2 -5 -2 -12 -5 -8 -2 -9 10
-5 10 4 20 7 22 7 3 0 3 4 0 8 -3 5 1 9 8 9 8 0 12 -7 9 -16 -3 -9 7 1 21 22
29 40 44 50 26 17 -6 -11 -8 -20 -6 -20 3 0 12 13 21 30 14 27 14 29 -2 24
-10 -3 -6 2 10 11 16 9 27 24 27 37 0 17 2 18 15 8 13 -11 14 -10 9 4 -4 9 -1
16 6 16 9 0 9 4 -1 17 -13 15 -12 15 9 4 23 -12 23 -12 11 11 -12 22 -11 22 6
8 10 -8 16 -10 12 -3 -7 11 4 25 47 61 9 7 16 18 15 25 0 7 -7 2 -16 -11 -8
-12 -19 -22 -24 -22 -5 0 3 13 17 30 15 16 31 27 35 24 5 -3 9 2 9 10 0 9 8
16 18 17 9 0 12 3 5 6 -10 3 -10 7 0 18 7 7 16 11 21 8 4 -3 5 5 1 18 -7 21
-6 22 9 10 14 -12 16 -12 10 4 -5 12 -4 16 3 12 6 -4 14 0 17 9 4 10 2 13 -7
8 -7 -4 -9 -3 -4 2 5 5 13 10 18 10 5 1 14 2 20 3 5 0 7 7 3 14 -5 7 -2 7 10
-2 15 -12 17 -12 14 0 -2 8 3 13 11 11 20 -4 41 17 34 36 -6 15 -5 16 12 2 10
-8 16 -10 13 -5 -3 6 8 26 24 45 17 19 27 28 22 20 -6 -12 -5 -13 8 -3 8 7 17
10 20 8 3 -3 4 6 3 20 -3 22 -1 24 17 14 15 -8 19 -8 14 0 -4 6 -1 11 6 11 9
0 9 3 -2 10 -10 6 -11 10 -2 10 6 0 12 7 12 15 0 8 5 15 11 15 5 0 7 6 3 12
-5 9 -2 8 9 -1 15 -12 17 -12 11 2 -4 12 -1 15 14 12 16 -3 20 1 17 21 -2 18
1 22 10 14 9 -8 15 -7 18 2 4 8 6 7 6 -4 1 -10 9 -18 19 -18 16 -1 16 -1 0
-11 -15 -8 -16 -13 -6 -29 7 -10 17 -16 23 -14 5 3 3 0 -6 -8 -15 -12 -15 -43
0 -34 4 3 7 -6 7 -20 0 -15 -5 -23 -12 -20 -7 3 -10 -3 -7 -15 3 -10 10 -16
16 -12 6 3 7 1 3 -6 -4 -6 -12 -9 -17 -6 -5 4 -9 1 -9 -5 0 -6 -5 -8 -12 -4
-10 6 -10 4 0 -8 10 -13 9 -15 -10 -14 -14 1 -23 -5 -23 -14 -1 -8 -6 -14 -13
-13 -11 3 -16 -10 -13 -30 1 -4 -8 -3 -19 3 -16 9 -19 8 -13 -6 4 -11 3 -15
-5 -10 -6 3 -13 2 -17 -4 -3 -5 -1 -10 6 -10 7 0 9 -3 6 -6 -4 -4 -13 -1 -22
6 -12 10 -16 9 -21 -4 -3 -9 -10 -14 -14 -11 -5 3 -12 0 -16 -6 -4 -8 -3 -9 4
-5 7 4 12 2 12 -5 0 -6 -8 -9 -20 -6 -11 3 -18 1 -14 -4 5 -8 -18 -14 -40 -10
-5 1 -6 -6 -2 -15 5 -12 2 -15 -9 -10 -9 3 -13 2 -10 -4 3 -6 2 -10 -4 -10 -5
0 -8 -9 -6 -20 2 -11 1 -19 -3 -19 -18 3 -32 -2 -32 -11 0 -5 7 -10 15 -10 18
0 20 -16 3 -26 -7 -5 -8 -3 -3 6 5 9 4 11 -4 6 -9 -6 -9 -11 0 -22 6 -7 15
-12 18 -9 4 2 8 -2 8 -10 0 -10 -4 -12 -12 -5 -17 14 -26 0 -14 -22 6 -11 8
-27 5 -35 -6 -14 -4 -14 11 -2 10 7 15 9 11 5 -4 -5 -3 -15 4 -23 9 -11 7 -12
-7 -7 -13 5 -16 4 -11 -4 11 -19 18 -64 8 -58 -4 2 -9 -5 -9 -17 -2 -15 0 -18
6 -8 6 9 10 6 13 -12 4 -20 1 -24 -11 -19 -13 4 -12 1 3 -16 11 -12 15 -22 10
-22 -6 0 -8 -16 -6 -35 2 -19 7 -33 11 -31 4 3 7 -4 8 -14 1 -11 -2 -22 -8
-25 -5 -4 -9 -24 -9 -45 0 -21 -5 -42 -10 -45 -8 -5 -8 -11 -1 -19 6 -7 9 -41
8 -77 -2 -51 -5 -66 -17 -65 -19 1 -20 -23 -1 -54 15 -24 15 -25 -4 -10 -16
11 -17 11 -7 0 6 -8 12 -23 12 -34 0 -10 3 -16 7 -13 3 4 12 -1 20 -11 12 -16
13 -16 6 2 -4 13 -3 17 5 12 8 -4 12 0 13 11 0 11 3 13 6 5 4 -10 8 -10 21 0
13 11 15 10 9 -5 -4 -12 -3 -16 4 -11 6 3 9 14 6 24 -3 13 0 16 16 12 14 -3
18 -1 13 6 -4 7 -3 12 3 12 5 0 17 7 25 16 9 8 16 11 16 5 0 -5 -8 -15 -17
-20 -10 -6 -13 -10 -8 -10 12 0 55 34 55 44 0 3 -5 3 -12 -1 -7 -4 -8 -3 -4 4
4 6 14 8 23 5 10 -4 14 -2 10 4 -4 6 4 9 19 7 19 -2 24 1 20 12 -3 8 -2 13 3
9 5 -3 12 1 14 7 4 10 6 10 6 0 1 -10 4 -10 15 0 8 7 11 17 9 22 -3 5 0 6 8 4
8 -3 13 -11 11 -17 -1 -7 2 -10 7 -6 6 3 7 13 4 21 -4 10 2 17 16 21 11 3 18
9 15 14 -3 5 2 6 10 3 9 -4 18 1 22 10 3 9 10 16 16 16 5 0 6 -5 2 -12 -4 -7
-3 -8 4 -4 7 4 12 14 12 22 0 8 5 14 11 14 5 0 7 6 3 12 -5 9 -2 9 9 -1 15
-12 17 -11 17 4 0 14 3 15 15 5 13 -11 14 -10 9 4 -4 9 -3 16 2 15 20 -3 34 2
34 12 0 5 -5 7 -12 3 -6 -4 -8 -3 -4 4 3 6 16 9 27 7 16 -3 19 0 15 12 -6 14
-4 14 11 2 10 -7 15 -10 11 -5 -9 11 10 48 21 42 12 -8 51 23 51 39 0 8 6 12
13 10 6 -3 17 5 22 17 6 13 16 22 23 21 7 -2 12 2 12 8 0 6 7 9 15 5 8 -3 14
-2 13 2 -1 4 4 17 12 29 11 18 17 20 29 10 12 -9 13 -9 7 1 -4 6 -2 12 3 12 6
0 11 5 11 11 0 5 -5 7 -12 3 -7 -5 -8 -3 -4 5 5 7 14 10 22 7 16 -6 46 32 37
47 -3 6 -1 7 6 3 6 -4 8 -12 5 -18 -5 -7 -2 -8 5 -4 7 5 10 14 7 22 -3 9 0 11
11 7 9 -4 14 -2 11 3 -4 5 1 18 9 29 10 13 14 14 10 4 -3 -9 0 -16 8 -16 7 0
10 8 8 18 -3 9 1 20 8 25 9 5 10 2 6 -10 -4 -10 -3 -15 3 -11 6 3 10 11 10 18
0 16 50 58 61 51 5 -3 9 2 9 10 0 14 22 21 51 18 3 -1 4 11 1 25 -4 20 -2 24
9 18 11 -7 12 -6 3 6 -7 8 -11 30 -11 50 1 20 -6 43 -14 51 -10 10 -14 36 -13
89 2 101 2 101 16 93 7 -4 8 -3 4 5 -4 6 -12 9 -17 6 -5 -4 -9 1 -9 10 0 9 5
13 11 9 8 -4 8 0 0 15 -9 16 -9 21 1 22 7 0 4 4 -7 9 -16 7 -17 9 -3 9 9 1 20
6 24 13 4 6 3 8 -3 5 -11 -7 -28 22 -18 31 3 3 5 1 5 -5 0 -5 6 -10 13 -10 14
0 15 36 2 56 -3 6 -2 11 3 11 5 0 8 17 8 39 -1 27 3 37 12 34 11 -5 14 -1 16
30 1 6 6 18 13 25 7 7 9 20 6 29 -4 10 -2 14 4 10 7 -5 9 1 5 15 -5 19 -3 21
9 11 13 -10 15 -8 13 17 -1 17 2 27 7 24 18 -11 31 8 14 20 -14 10 -14 12 6
13 12 1 27 7 33 14 8 9 8 10 -1 5 -7 -4 -13 -2 -13 3 0 6 7 11 16 11 9 0 18 9
21 20 3 11 12 20 20 20 8 0 11 5 8 10 -4 6 -11 7 -17 4 -7 -4 -8 -2 -4 4 4 6
13 9 22 5 8 -3 14 -2 13 3 -4 23 2 45 11 39 6 -3 10 -1 10 5 0 6 4 8 10 5 5
-3 22 7 37 23 16 15 21 19 13 9 -14 -19 -14 -19 8 -6 12 8 22 19 22 26 0 7 7
10 15 7 8 -4 17 1 21 10 3 9 11 13 17 9 7 -4 8 0 4 12 -6 14 -3 16 13 12 11
-3 18 -2 17 1 -4 8 29 42 35 37 2 -2 10 6 17 18 13 21 13 21 -5 7 -18 -14 -18
-13 1 8 11 13 21 19 23 13 2 -6 8 -11 13 -11 6 0 8 4 5 9 -3 5 1 11 9 15 10 3
15 -1 15 -12 1 -13 4 -11 15 8 8 14 14 19 15 11 0 -14 15 -7 15 7 0 4 4 13 8
20 5 6 5 12 1 12 -3 0 -1 7 6 15 11 13 15 13 21 3 7 -10 9 -8 9 5 0 10 5 15
10 12 6 -4 10 -3 9 2 -3 18 1 34 9 30 10 -7 32 19 24 29 -4 5 2 2 12 -6 18
-14 19 -14 7 8 -12 23 -12 23 11 11 13 -6 20 -8 16 -4 -4 4 0 14 8 22 8 8 11
19 8 25 -4 7 2 7 17 3 21 -7 22 -6 10 9 -12 14 -12 16 2 10 12 -4 20 2 27 20
5 15 21 31 35 36 14 5 25 12 25 15 0 4 -6 3 -12 0 -7 -4 -4 0 6 9 10 8 22 13
27 11 4 -3 6 6 4 20 -1 16 3 25 12 25 8 0 11 -5 7 -12 -4 -7 -3 -8 4 -4 9 5 9
13 1 29 -9 18 -9 20 2 10 13 -13 38 -19 26 -7 -3 4 1 20 9 36 9 17 18 27 21
24 3 -3 0 -14 -8 -23 -12 -16 -11 -16 8 0 13 12 19 25 16 35 -4 10 -3 14 2 10
11 -10 58 50 49 63 -4 8 -3 9 5 5 6 -4 14 0 17 8 3 9 11 13 17 9 6 -4 8 0 4
10 -3 10 -2 17 4 17 6 0 8 4 4 9 -3 5 0 13 6 17 7 4 9 3 5 -4 -3 -6 -3 -13 2
-16 8 -5 12 9 13 49 0 15 2 16 8 6 10 -16 32 -6 25 12 -2 7 2 21 11 32 10 13
14 15 12 5 -2 -8 -2 -12 0 -7 3 4 10 4 15 1 7 -4 8 -2 4 5 -10 16 2 63 14 56
9 -5 15 15 11 37 0 4 6 5 15 1 8 -3 14 -2 13 3 -4 22 2 35 13 28 7 -5 9 0 6
14 -5 19 -3 20 13 12 17 -10 18 -8 9 16 -9 24 -9 25 5 14 13 -11 14 -10 9 5
-5 13 -4 16 4 11 7 -4 12 -2 12 4 0 6 5 8 12 4 7 -4 8 -3 4 5 -4 6 -13 8 -19
4 -7 -3 -4 3 6 14 9 11 16 22 15 24 -2 2 3 -3 11 -11 11 -13 12 -12 6 8 -5 17
0 28 17 43 13 11 17 18 11 14 -7 -3 -13 -1 -13 4 0 6 6 11 14 11 8 0 18 5 22
12 5 8 1 9 -12 5 -18 -7 -18 -6 -1 7 9 7 17 18 17 25 0 6 5 11 10 11 6 0 10 5
10 11 0 5 -6 7 -12 3 -8 -4 -10 -3 -5 2 5 5 13 10 18 10 22 3 23 5 9 14 -12 8
-11 11 9 17 23 6 23 7 5 21 -17 13 -17 14 -1 9 11 -4 17 -2 16 6 -3 23 3 52 8
40 2 -7 9 -13 14 -13 6 0 8 4 5 9 -3 5 3 11 14 14 11 3 20 11 20 17 0 9 -4 9
-17 -1 -15 -13 -15 -12 -2 9 8 12 15 18 17 12 7 -19 20 -10 25 16 3 17 1 24
-8 21 -6 -3 -12 1 -12 9 0 8 6 13 12 10 7 -2 11 7 11 27 -1 19 4 31 11 30 7
-1 9 6 5 19 -3 14 -1 19 6 14 7 -4 12 -3 12 3 0 5 -6 12 -12 14 -8 3 -5 6 5 6
10 1 15 6 12 11 -4 6 -12 8 -18 4 -7 -3 -3 1 7 10 10 8 24 13 30 10 6 -3 3 1
-6 9 -19 15 -25 32 -8 22 10 -6 12 -1 13 46 1 16 6 25 13 22 6 -2 14 3 18 13
4 12 2 15 -9 10 -12 -4 -13 -2 -3 14 7 10 17 16 23 13 5 -4 1 4 -9 16 -16 17
-16 20 -4 16 9 -4 19 -1 24 6 4 8 3 10 -4 5 -7 -4 -12 -2 -12 3 0 6 6 11 13
11 8 0 7 4 -3 10 -13 9 -13 10 0 10 13 0 13 1 0 10 -8 5 -10 10 -4 10 7 0 12
15 13 33 1 51 6 85 14 93 3 4 4 -3 2 -16 -4 -19 -2 -20 11 -9 14 12 14 15 -4
29 -20 16 -20 17 0 29 13 8 16 16 11 24 -13 17 -8 58 7 67 8 5 14 18 15 29 1
11 -2 18 -6 16 -3 -3 -9 7 -12 21 -2 14 1 28 7 30 7 3 12 14 13 24 1 13 -2 18
-10 13 -7 -4 -5 2 3 12 14 17 13 18 -5 12 -20 -7 -20 -7 -1 8 11 8 14 15 8 15
-7 0 -12 5 -12 11 0 5 4 8 8 5 11 -7 8 51 -3 61 -4 5 -4 1 0 -7 8 -13 7 -13
-8 -1 -18 15 -23 26 -7 16 6 -3 10 1 10 9 0 9 -6 16 -12 16 -8 0 -9 3 -3 8 14
10 16 44 2 35 -6 -4 -8 0 -4 10 4 11 2 14 -7 11 -7 -3 -16 2 -20 11 -3 9 -2
14 2 11 5 -3 9 1 9 8 0 8 -7 12 -15 8 -11 -4 -13 -1 -7 8 6 10 4 12 -8 7 -11
-4 -17 -1 -17 9 0 8 5 12 10 9 6 -3 10 -2 10 3 0 6 -7 13 -16 16 -8 3 -12 2
-9 -4 3 -6 2 -10 -3 -10 -6 0 -12 7 -16 15 -3 8 -13 15 -21 15 -10 0 -13 5 -9
13 6 9 4 9 -8 -1 -13 -10 -17 -10 -21 0 -4 10 -6 9 -6 -1 -1 -11 -5 -10 -17 5
-8 10 -13 13 -9 7 4 -9 1 -11 -10 -7 -13 5 -13 9 -3 23 11 14 11 14 -3 4 -9
-7 -20 -9 -24 -5 -5 4 -5 2 -2 -4 4 -7 0 -14 -7 -17 -11 -4 -13 0 -11 15 4 19
3 19 -14 4 -21 -19 -38 -22 -23 -3 8 9 5 12 -13 12 -13 0 -21 -4 -18 -8 2 -4
-7 -5 -21 -1 -46 11 -96 10 -96 -3 0 -6 -4 -14 -9 -17 -5 -4 -7 3 -4 14 3 11
3 20 -1 20 -3 0 -6 -4 -6 -10z m-533 -112 c-3 -8 -6 -5 -6 6 -1 11 2 17 5 13
3 -3 4 -12 1 -19z m-1183 -713 c-4 -8 -11 -15 -16 -15 -6 0 -5 6 2 15 7 8 14
15 16 15 2 0 1 -7 -2 -15z m-277 -280 c-15 -16 -19 -13 -11 9 3 9 10 13 15 10
5 -3 3 -11 -4 -19z m-1354 -600 c-3 -9 -8 -14 -10 -11 -3 3 -2 9 2 15 9 16 15
13 8 -4z m-403 -489 c0 -2 -8 -10 -17 -17 -16 -13 -17 -12 -4 4 13 16 21 21
21 13z m835 -195 c3 -5 2 -12 -3 -15 -5 -3 -9 1 -9 9 0 17 3 19 12 6z m105
-15 c0 -3 -4 -8 -10 -11 -5 -3 -10 -1 -10 4 0 6 5 11 10 11 6 0 10 -2 10 -4z
m-739 -310 c5 3 9 0 9 -6 0 -15 -23 -7 -26 8 -1 7 0 8 3 2 2 -5 9 -8 14 -4z
m2489 -16 c0 -5 -5 -10 -11 -10 -5 0 -7 5 -4 10 3 6 8 10 11 10 2 0 4 -4 4
-10z m-2297 -335 c-3 -9 -8 -14 -10 -11 -3 3 -2 9 2 15 9 16 15 13 8 -4z
m-133 -219 c0 -3 -4 -8 -10 -11 -5 -3 -10 -1 -10 4 0 6 5 11 10 11 6 0 10 -2
10 -4z m1465 -44 c-3 -3 -11 0 -18 7 -9 10 -8 11 6 5 10 -3 15 -9 12 -12z
m-1527 -52 c-7 -10 -14 -17 -17 -15 -4 4 18 35 25 35 2 0 -1 -9 -8 -20z m1272
-250 c0 -5 -2 -10 -4 -10 -3 0 -8 5 -11 10 -3 6 -1 10 4 10 6 0 11 -4 11 -10z
m-1523 -385 c0 -8 -4 -12 -9 -9 -5 3 -6 10 -3 15 9 13 12 11 12 -6z m78 -214
c3 -5 2 -12 -3 -15 -5 -3 -9 1 -9 9 0 17 3 19 12 6z m224 -8 c-6 -7 -15 -10
-20 -7 -13 8 -3 21 15 21 12 0 13 -4 5 -14z"/>
<path d="M4830 4470 c-6 -11 -8 -20 -6 -20 3 0 10 9 16 20 6 11 8 20 6 20 -3
0 -10 -9 -16 -20z"/>
<path d="M4805 4370 c-3 -6 1 -7 9 -4 18 7 21 14 7 14 -6 0 -13 -4 -16 -10z"/>
<path d="M4805 4340 c-3 -6 1 -7 9 -4 18 7 21 14 7 14 -6 0 -13 -4 -16 -10z"/>
<path d="M4775 4200 c-3 -6 1 -7 9 -4 18 7 21 14 7 14 -6 0 -13 -4 -16 -10z"/>
<path d="M1240 3310 c-9 -6 -10 -10 -3 -10 6 0 15 5 18 10 8 12 4 12 -15 0z"/>
<path d="M4330 3199 c0 -5 5 -7 10 -4 6 3 10 8 10 11 0 2 -4 4 -10 4 -5 0 -10
-5 -10 -11z"/>
<path d="M3926 2703 c-6 -14 -5 -15 5 -6 7 7 10 15 7 18 -3 3 -9 -2 -12 -12z"/>
<path d="M2130 1615 c-7 -9 -11 -17 -9 -20 3 -2 10 5 17 15 14 24 10 26 -8 5z"/>
<path d="M618 1598 c-4 -8 -1 -21 5 -27 9 -9 8 -11 -5 -6 -14 6 -16 2 -12 -17
3 -12 6 -28 6 -35 1 -7 5 -10 10 -7 4 3 8 0 8 -6 0 -7 8 -9 20 -5 16 5 19 3
14 -12 -5 -17 -5 -17 6 0 6 9 15 15 21 12 21 -14 33 80 12 97 -17 14 -65 19
-57 6 3 -4 1 -8 -5 -8 -5 0 -11 5 -13 12 -3 8 -6 7 -10 -4z m83 -15 c13 -16
12 -17 -3 -4 -14 11 -18 11 -18 1 0 -8 -3 -11 -6 -7 -5 5 3 27 10 27 2 0 10
-8 17 -17z"/>
<path d="M3114 1569 c-3 -6 -2 -15 3 -20 5 -5 9 -1 9 11 0 23 -2 24 -12 9z"/>
<path d="M3115 1490 c3 -5 8 -10 11 -10 2 0 4 5 4 10 0 6 -5 10 -11 10 -5 0
-7 -4 -4 -10z"/>
<path d="M2040 1394 c0 -8 5 -12 10 -9 6 4 8 11 5 16 -9 14 -15 11 -15 -7z"/>
<path d="M600 1388 c-2 -5 -3 -12 -4 -17 0 -5 -5 -13 -10 -18 -5 -5 -6 -3 -2
5 4 6 3 12 -2 12 -6 0 -9 -11 -8 -24 0 -13 4 -22 8 -20 3 2 8 1 11 -3 2 -5 3
-3 1 3 -2 7 6 10 19 6 20 -5 21 -4 7 13 -9 11 -10 16 -2 11 7 -4 12 -1 12 9 0
9 -4 14 -9 11 -5 -4 -12 0 -14 6 -3 7 -6 10 -7 6z"/>
<path d="M2815 1069 c-4 -6 -5 -12 -2 -15 2 -3 7 2 10 11 7 17 1 20 -8 4z"/>
<path d="M2747 1016 c-4 -10 -1 -13 8 -9 8 3 12 9 9 14 -7 12 -11 11 -17 -5z"/>
<path d="M1236 779 c4 -8 -1 -9 -17 -4 -23 7 -23 6 -5 -8 19 -14 19 -14 1 -24
-23 -14 -30 -44 -7 -36 11 5 14 2 10 -9 -6 -13 -1 -14 35 -5 23 6 36 12 29 15
-7 2 -12 8 -12 14 0 6 6 8 14 5 9 -4 13 0 11 11 -2 9 -4 25 -4 35 -1 12 -9 17
-32 17 -19 0 -28 -4 -23 -11z"/>
<path d="M2047 775 c-4 -8 -3 -16 1 -19 4 -3 9 4 9 15 2 23 -3 25 -10 4z"/>
<path d="M2038 733 c7 -3 16 -2 19 1 4 3 -2 6 -13 5 -11 0 -14 -3 -6 -6z"/>
<path d="M775 650 c3 -5 8 -10 11 -10 2 0 4 5 4 10 0 6 -5 10 -11 10 -5 0 -7
-4 -4 -10z"/>
</g>
</svg>
