<?xml version="1.0" standalone="no"?>
<!DOCTYPE svg PUBLIC "-//W3C//DTD SVG 20010904//EN"
 "http://www.w3.org/TR/2001/REC-SVG-20010904/DTD/svg10.dtd">
<svg version="1.0" xmlns="http://www.w3.org/2000/svg"
 width="512.000000pt" height="512.000000pt" viewBox="0 0 512.000000 512.000000"
 preserveAspectRatio="xMidYMid meet">
<metadata>
Created by potrace 1.14, written by Peter Selinger 2001-2017
</metadata>
<g transform="translate(0.000000,512.000000) scale(0.100000,-0.100000)"
fill="#000000" stroke="none">
<path d="M843 5105 c-260 -48 -513 -211 -660 -425 -49 -73 -98 -170 -126 -251
-59 -170 -57 -93 -53 -1904 3 -1782 0 -1681 51 -1830 81 -237 257 -447 476
-568 44 -25 164 -76 191 -81 7 -2 20 -6 28 -9 8 -3 49 -13 90 -21 65 -13 291
-15 1715 -15 1760 0 1693 -2 1855 50 64 20 210 85 220 98 3 3 31 23 62 44 31
21 86 67 122 103 65 64 156 182 156 203 0 6 4 11 8 11 8 0 57 94 57 109 0 3 3
11 7 17 15 23 50 140 65 219 9 47 11 3342 2 3400 -4 22 -9 47 -13 55 -3 8 -7
26 -10 40 -24 137 -139 341 -264 466 -59 60 -202 171 -202 158 0 -4 -8 0 -17
8 -43 38 -214 101 -328 122 -114 20 -3320 21 -3432 1z"/>
</g>
</svg>
